<svg width="42" height="42" viewBox="0 0 42 42" fill="none" xmlns="http://www.w3.org/2000/svg">
<g clip-path="url(#clip0_101_58)">
<path d="M1.55039 0.123055C1.05 0.278912 0.467578 0.803913 0.205078 1.33712L0 1.77188L0.0164062 21.082L0.0410156 40.4004L0.2625 40.7859C0.39375 40.991 0.648047 41.3027 0.836719 41.4586C1.48477 42.0164 1.21406 42 9.16289 42H16.3242V29.1621V16.3242H21H25.6758V21V25.6758H23.3379H21V28.0137V30.3598L24.798 30.3352L28.5879 30.3106L29.0062 30.0891C29.523 29.8184 29.9578 29.3426 30.1547 28.8258C30.3023 28.4402 30.3105 28.0875 30.3105 21C30.3105 13.9125 30.3023 13.5598 30.1547 13.1742C29.9578 12.6574 29.523 12.1817 29.0062 11.9109L28.5879 11.6895L21.1723 11.6649C12.9691 11.6402 13.2398 11.6238 12.5426 12.1652C12.3539 12.3047 12.0832 12.6328 11.9437 12.8789L11.6895 13.3301L11.6648 25.3313L11.6484 37.3242H8.16211H4.67578V21V4.67579H21H37.3242V10.5V16.3242H39.6621H42L41.9836 9.03985C41.959 1.8211 41.959 1.76368 41.7867 1.38633C41.5734 0.935162 41.1387 0.475788 40.6629 0.229694L40.3184 0.0410233L21.123 0.0246162C4.74961 0.0164108 1.87031 0.0246162 1.55039 0.123055Z" fill="#165CF3"/>
<path d="M37.3242 31.5V37.3242H29.1621H21V39.6621V42L30.6223 41.9836C41.393 41.959 40.4906 42.0082 41.2043 41.352C41.4094 41.1633 41.6555 40.8188 41.7621 40.5809L41.959 40.1543L41.9836 32.9109L42.0082 25.6758H39.6621H37.3242V31.5Z" fill="#292929"/>
</g>
<defs>
<clipPath id="clip0_101_58">
<rect width="42" height="42" fill="white"/>
</clipPath>
</defs>
</svg>
